<?xml version="1.0" encoding="utf-8"?>
<!-- Generator: Adobe Illustrator 16.0.0, SVG Export Plug-In . SVG Version: 6.00 Build 0)  -->
<!DOCTYPE svg PUBLIC "-//W3C//DTD SVG 1.1//EN" "http://www.w3.org/Graphics/SVG/1.1/DTD/svg11.dtd">
<svg version="1.1" id="Layer_1" xmlns="http://www.w3.org/2000/svg" xmlns:xlink="http://www.w3.org/1999/xlink" x="0px" y="0px"
	 width="33px" height="33px" viewBox="0 0 33 33" enable-background="new 0 0 33 33" xml:space="preserve">
<g>
	<path fill="#FFFFFF" d="M16.503,33C7.404,33,0,25.598,0,16.497S7.404-0.006,16.503-0.006c9.101,0,16.503,7.402,16.503,16.503
		S25.604,33,16.503,33z M16.503,1.025c-8.531,0-15.472,6.939-15.472,15.472s6.941,15.472,15.472,15.472
		c8.531,0,15.472-6.939,15.472-15.472S25.034,1.025,16.503,1.025z"/>
	<g>
		<path fill="#FFFFFF" d="M13.409,25.78v-8.252h-2.063v-3.095h2.063V12.07v-1.594c0-1.987,2.405-3.264,4.394-3.264h1.795v3.096
			h-0.896c-0.994,0-2.199,0.543-2.199,1.537v0.225v2.363h2.127l-0.021,3.095h-2.106v8.252H13.409z"/>
	</g>
</g>
</svg>
